<svg width="35" height="35" viewBox="0 0 35 35" fill="none" xmlns="http://www.w3.org/2000/svg">
<g clip-path="url(#clip0_6741_627)">
<path opacity="0.4" d="M0 17.5C0 22.1413 1.84374 26.5925 5.12563 29.8744C8.40752 33.1563 12.8587 35 17.5 35C22.1413 35 26.5925 33.1563 29.8744 29.8744C33.1563 26.5925 35 22.1413 35 17.5C35 12.8587 33.1563 8.40752 29.8744 5.12563C26.5925 1.84374 22.1413 0 17.5 0C12.8587 0 8.40752 1.84374 5.12563 5.12563C1.84374 8.40752 0 12.8587 0 17.5ZM15.8594 8.20312C15.8662 7.28711 16.5977 6.5625 17.5 6.5625C17.9512 6.5625 18.3613 6.74707 18.6621 7.04102C18.8125 7.19141 18.9287 7.36914 19.0107 7.56055C19.0518 7.65625 19.0859 7.75879 19.1064 7.86816C19.1201 7.92285 19.127 7.97754 19.1338 8.03223C19.1406 8.08691 19.1406 8.1416 19.1406 8.20312C19.1406 11.0059 19.1406 13.8154 19.1406 16.625L24.9717 20.5078C25.4434 20.8223 25.7031 21.3418 25.7031 21.875C25.7031 22.1895 25.6143 22.5039 25.4297 22.7842C25.1152 23.2559 24.5957 23.5156 24.0625 23.5156C23.748 23.5156 23.4336 23.4268 23.1533 23.2422C20.9658 21.7861 18.7783 20.3232 16.5908 18.8672C16.1328 18.5596 15.8594 18.0469 15.8594 17.5C15.8594 14.4033 15.8594 11.2998 15.8594 8.20312Z" fill="#0070E2"/>
<path d="M17.5 6.5625C16.5908 6.5625 15.8594 7.29395 15.8594 8.20312V17.5C15.8594 18.0469 16.1328 18.5596 16.5908 18.8672L23.1533 23.2422C23.9053 23.748 24.9238 23.543 25.4297 22.7842C25.9355 22.0254 25.7305 21.0137 24.9717 20.5078L19.1406 16.625V8.20312C19.1406 7.29395 18.4092 6.5625 17.5 6.5625Z" fill="#0070E2"/>
</g>
<defs>
<clipPath id="clip0_6741_627">
<rect width="35" height="35" fill="white"/>
</clipPath>
</defs>
</svg>
