<svg width="20" height="22" viewBox="0 0 20 22" fill="none" xmlns="http://www.w3.org/2000/svg">
<g clip-path="url(#clip0_6741_489)">
<path d="M9.99915 0C9.20897 0 8.57057 0.614453 8.57057 1.375V2.2C5.31165 2.83594 2.85629 5.61172 2.85629 8.9375V9.74531C2.85629 11.7648 2.08397 13.7156 0.69111 15.2281L0.360753 15.5848C-0.0142474 15.9887 -0.103533 16.5688 0.124145 17.0629C0.351824 17.557 0.865217 17.875 1.42772 17.875H18.5706C19.1331 17.875 19.642 17.557 19.8741 17.0629C20.1063 16.5688 20.0125 15.9887 19.6375 15.5848L19.3072 15.2281C17.9143 13.7156 17.142 11.7691 17.142 9.74531V8.9375C17.142 5.61172 14.6866 2.83594 11.4277 2.2V1.375C11.4277 0.614453 10.7893 0 9.99915 0ZM12.0215 21.1965C12.5572 20.6809 12.8563 19.9805 12.8563 19.25H9.99915H7.142C7.142 19.9805 7.44111 20.6809 7.97682 21.1965C8.51254 21.7121 9.24022 22 9.99915 22C10.7581 22 11.4858 21.7121 12.0215 21.1965Z" fill="white"/>
</g>
<defs>
<clipPath id="clip0_6741_489">
<rect width="20" height="22" fill="white"/>
</clipPath>
</defs>
</svg>
