<svg width="66" height="76" viewBox="0 0 66 76" fill="none" xmlns="http://www.w3.org/2000/svg">
<g clip-path="url(#clip0_6741_731)">
<path opacity="0.4" d="M0 28.2857H66V68.3571C66 72.2612 62.8326 75.4286 58.9286 75.4286H7.07143C3.16741 75.4286 0 72.2612 0 68.3571V28.2857ZM16.5 46.7451C16.5 49.1317 17.4576 51.4299 19.1371 53.1241L31.3205 65.3076C31.7772 65.7643 32.3812 66 32.9853 66C33.5893 66 34.1933 65.7643 34.65 65.3076L46.8335 53.1241C48.5277 51.4299 49.4705 49.1317 49.4705 46.7451C49.4705 41.7656 45.4339 37.7143 40.4397 37.7143C38.0531 37.7143 35.7549 38.6719 34.0607 40.3513L32.9705 41.4415L31.8804 40.3513C30.1862 38.6571 27.8879 37.7143 25.5013 37.7143C20.5219 37.7143 16.4705 41.7509 16.4705 46.7451H16.5Z" fill="#76D9EC"/>
<path d="M18.8571 0C16.2496 0 14.1429 2.1067 14.1429 4.71429V9.42857H7.07143C3.16741 9.42857 0 12.596 0 16.5V28.2857H66V16.5C66 12.596 62.8326 9.42857 58.9286 9.42857H51.8571V4.71429C51.8571 2.1067 49.7504 0 47.1429 0C44.5353 0 42.4286 2.1067 42.4286 4.71429V9.42857H23.5714V4.71429C23.5714 2.1067 21.4647 0 18.8571 0ZM16.5 46.7451C16.5 49.1317 17.4576 51.4299 19.1371 53.1241L31.3205 65.3076C32.2339 66.221 33.7366 66.221 34.65 65.3076L46.8335 53.1241C48.5277 51.4299 49.4705 49.1317 49.4705 46.7451C49.4705 41.7656 45.4339 37.7143 40.4397 37.7143C38.0531 37.7143 35.7549 38.6719 34.0607 40.3513L32.9705 41.4415L31.8804 40.3513C30.1862 38.6571 27.8879 37.7143 25.5013 37.7143C20.5219 37.7143 16.4705 41.7509 16.4705 46.7451H16.5Z" fill="#76D9EC"/>
</g>
<defs>
<clipPath id="clip0_6741_731">
<rect width="66" height="75.4286" fill="white"/>
</clipPath>
</defs>
</svg>
