<svg width="18" height="18" viewBox="0 0 18 18" fill="none" xmlns="http://www.w3.org/2000/svg">
<path opacity="0.4" d="M0 8.4375C0 10.023 0.622266 11.4891 1.67695 12.6879C1.61016 13.5492 1.27617 14.3156 0.924609 14.8992C0.73125 15.2227 0.534375 15.4828 0.390234 15.6586C0.316406 15.7465 0.260156 15.8133 0.217969 15.859C0.196875 15.8801 0.182812 15.8977 0.172266 15.9082L0.161719 15.9187C0.05625 16.0242 0 16.1684 0 16.3125C0 16.3863 0.0140625 16.4566 0.0421875 16.527C0.130078 16.7379 0.333984 16.875 0.5625 16.875C1.57148 16.875 2.5875 16.5621 3.43125 16.1965C4.23633 15.8449 4.92188 15.4266 5.34023 15.1207C6.4582 15.525 7.6957 15.75 9 15.75C13.9711 15.75 18 12.477 18 8.4375C18 4.39805 13.9711 1.125 9 1.125C4.02891 1.125 0 4.39805 0 8.4375ZM5.22773 10.6875C4.91836 10.3395 4.94648 9.80859 5.29453 9.4957C5.64258 9.18281 6.17344 9.21445 6.48633 9.5625C7.10508 10.2551 8.00156 10.6875 9.00352 10.6875C10.0055 10.6875 10.8984 10.2551 11.5207 9.5625C11.8301 9.21445 12.3645 9.18633 12.7125 9.4957C12.8988 9.66094 12.9938 9.89297 12.9938 10.125C12.9938 10.3254 12.9234 10.5258 12.7793 10.6875C11.8477 11.7211 10.4977 12.375 9 12.375C7.50234 12.375 6.15234 11.7211 5.22773 10.6875ZM7.875 6.1875C7.875 6.48587 7.75647 6.77202 7.5455 6.983C7.33452 7.19397 7.04837 7.3125 6.75 7.3125C6.45163 7.3125 6.16548 7.19397 5.9545 6.983C5.74353 6.77202 5.625 6.48587 5.625 6.1875C5.625 5.88913 5.74353 5.60298 5.9545 5.392C6.16548 5.18103 6.45163 5.0625 6.75 5.0625C7.04837 5.0625 7.33452 5.18103 7.5455 5.392C7.75647 5.60298 7.875 5.88913 7.875 6.1875ZM12.375 6.1875C12.375 6.48587 12.2565 6.77202 12.0455 6.983C11.8345 7.19397 11.5484 7.3125 11.25 7.3125C10.9516 7.3125 10.6655 7.19397 10.4545 6.983C10.2435 6.77202 10.125 6.48587 10.125 6.1875C10.125 5.88913 10.2435 5.60298 10.4545 5.392C10.6655 5.18103 10.9516 5.0625 11.25 5.0625C11.5484 5.0625 11.8345 5.18103 12.0455 5.392C12.2565 5.60298 12.375 5.88913 12.375 6.1875Z" fill="white"/>
<path d="M7.87503 6.1875C7.87503 5.88913 7.7565 5.60298 7.54552 5.39201C7.33454 5.18103 7.0484 5.0625 6.75003 5.0625C6.45166 5.0625 6.16551 5.18103 5.95453 5.39201C5.74355 5.60298 5.62503 5.88913 5.62503 6.1875C5.62503 6.48587 5.74355 6.77202 5.95453 6.98299C6.16551 7.19397 6.45166 7.3125 6.75003 7.3125C7.0484 7.3125 7.33454 7.19397 7.54552 6.98299C7.7565 6.77202 7.87503 6.48587 7.87503 6.1875ZM12.375 6.1875C12.375 5.88913 12.2565 5.60298 12.0455 5.39201C11.8345 5.18103 11.5484 5.0625 11.25 5.0625C10.9517 5.0625 10.6655 5.18103 10.4545 5.39201C10.2436 5.60298 10.125 5.88913 10.125 6.1875C10.125 6.48587 10.2436 6.77202 10.4545 6.98299C10.6655 7.19397 10.9517 7.3125 11.25 7.3125C11.5484 7.3125 11.8345 7.19397 12.0455 6.98299C12.2565 6.77202 12.375 6.48587 12.375 6.1875ZM6.48284 9.5625C6.17346 9.21445 5.63909 9.18633 5.29104 9.4957C4.943 9.80508 4.91487 10.3395 5.22425 10.6875C6.14885 11.7211 7.49885 12.375 8.99651 12.375C10.4942 12.375 11.8442 11.7211 12.7688 10.6875C13.0782 10.3395 13.05 9.80859 12.702 9.4957C12.3539 9.18281 11.8231 9.21445 11.5102 9.5625C10.8914 10.2551 9.99495 10.6875 8.993 10.6875C7.99104 10.6875 7.09807 10.2551 6.47581 9.5625H6.48284Z" fill="white"/>
</svg>
