<svg width="35" height="35" viewBox="0 0 35 35" fill="none" xmlns="http://www.w3.org/2000/svg">
<path opacity="0.4" d="M6.5625 6.5625V24.0625C6.5625 26.4756 8.52441 28.4375 10.9375 28.4375H24.0625V21.875C24.0625 20.665 25.04 19.6875 26.25 19.6875H32.8125V6.5625C32.8125 4.14941 30.8506 2.1875 28.4375 2.1875H10.9375C8.52441 2.1875 6.5625 4.14941 6.5625 6.5625Z" fill="#FF8481"/>
<path d="M20.2344 31.7188C21.1436 31.7188 21.875 32.4502 21.875 33.3594C21.875 34.2686 21.1436 35 20.2344 35H9.29688C4.16309 35 0 30.8369 0 25.7031V10.3906C0 9.48145 0.731445 8.75 1.64062 8.75C2.5498 8.75 3.28125 9.48145 3.28125 10.3906V25.7031C3.28125 29.0254 5.97461 31.7188 9.29688 31.7188H20.2344ZM24.0625 28.4375V21.875C24.0625 20.665 25.04 19.6875 26.25 19.6875H32.8125L24.0625 28.4375Z" fill="#FF8481"/>
</svg>
