<svg width="25" height="22" viewBox="0 0 25 22" fill="none" xmlns="http://www.w3.org/2000/svg">
<circle cx="12.1582" cy="11" r="11" fill="white"/>
<path d="M12.1799 11.0947C12.1799 11.9385 12.0275 12.6676 11.7228 13.2822C11.4181 13.8968 11.0002 14.3708 10.4689 14.7041C9.93768 15.0374 9.33091 15.2041 8.64862 15.2041C7.96633 15.2041 7.35956 15.0374 6.82831 14.7041C6.29706 14.3708 5.87909 13.8968 5.5744 13.2822C5.26971 12.6676 5.11737 11.9385 5.11737 11.0947C5.11737 10.251 5.26971 9.52181 5.5744 8.90723C5.87909 8.29264 6.29706 7.81868 6.82831 7.48535C7.35956 7.15202 7.96633 6.98535 8.64862 6.98535C9.33091 6.98535 9.93768 7.15202 10.4689 7.48535C11.0002 7.81868 11.4181 8.29264 11.7228 8.90723C12.0275 9.52181 12.1799 10.251 12.1799 11.0947ZM11.2424 11.0947C11.2424 10.402 11.1265 9.81738 10.8947 9.34082C10.6655 8.86426 10.3543 8.50358 9.96112 8.25879C9.57049 8.014 9.13299 7.8916 8.64862 7.8916C8.16424 7.8916 7.72544 8.014 7.33221 8.25879C6.94159 8.50358 6.63039 8.86426 6.39862 9.34082C6.16945 9.81738 6.05487 10.402 6.05487 11.0947C6.05487 11.7874 6.16945 12.3721 6.39862 12.8486C6.63039 13.3252 6.94159 13.6859 7.33221 13.9307C7.72544 14.1755 8.16424 14.2979 8.64862 14.2979C9.13299 14.2979 9.57049 14.1755 9.96112 13.9307C10.3543 13.6859 10.6655 13.3252 10.8947 12.8486C11.1265 12.3721 11.2424 11.7874 11.2424 11.0947ZM18.1838 9.09473C18.1369 8.69889 17.9468 8.3916 17.6135 8.17285C17.2801 7.9541 16.8713 7.84473 16.3869 7.84473C16.0327 7.84473 15.7228 7.90202 15.4572 8.0166C15.1942 8.13118 14.9885 8.28874 14.84 8.48926C14.6942 8.68978 14.6213 8.91764 14.6213 9.17285C14.6213 9.38639 14.6721 9.56999 14.7736 9.72363C14.8778 9.87467 15.0106 10.001 15.1721 10.1025C15.3335 10.2015 15.5028 10.2835 15.6799 10.3486C15.857 10.4111 16.0197 10.4619 16.1681 10.501L16.9806 10.7197C17.189 10.7744 17.4208 10.8499 17.676 10.9463C17.9338 11.0426 18.1799 11.1742 18.4142 11.3408C18.6512 11.5049 18.8465 11.7158 19.0002 11.9736C19.1538 12.2314 19.2306 12.5479 19.2306 12.9229C19.2306 13.3551 19.1174 13.7458 18.8908 14.0947C18.6668 14.4437 18.3387 14.721 17.9064 14.9268C17.4767 15.1325 16.9546 15.2354 16.34 15.2354C15.7671 15.2354 15.271 15.1429 14.8517 14.958C14.4351 14.7731 14.107 14.5153 13.8674 14.1846C13.6304 13.8538 13.4963 13.4697 13.465 13.0322H14.465C14.4911 13.3343 14.5926 13.5843 14.7697 13.7822C14.9494 13.9775 15.176 14.1234 15.4494 14.2197C15.7254 14.3135 16.0223 14.3604 16.34 14.3604C16.7098 14.3604 17.0418 14.3005 17.3361 14.1807C17.6304 14.0583 17.8635 13.889 18.0353 13.6729C18.2072 13.4541 18.2931 13.1989 18.2931 12.9072C18.2931 12.6416 18.2189 12.4255 18.0705 12.2588C17.9221 12.0921 17.7267 11.9567 17.4846 11.8525C17.2424 11.7484 16.9806 11.6572 16.6994 11.5791L15.715 11.2979C15.09 11.1182 14.5952 10.8617 14.2306 10.5283C13.8661 10.195 13.6838 9.75879 13.6838 9.21973C13.6838 8.77181 13.8049 8.38118 14.0471 8.04785C14.2918 7.71191 14.62 7.4515 15.0314 7.2666C15.4455 7.0791 15.9077 6.98535 16.4181 6.98535C16.9338 6.98535 17.3921 7.0778 17.7931 7.26269C18.1942 7.44499 18.5119 7.69499 18.7463 8.01269C18.9833 8.3304 19.1083 8.69108 19.1213 9.09473H18.1838Z" fill="#477D9F"/>
</svg>
