<svg width="46" height="35" viewBox="0 0 46 35" fill="none" xmlns="http://www.w3.org/2000/svg">
<g clip-path="url(#clip0_6741_620)">
<path opacity="0.4" d="M0 32.9697C0 34.0908 0.950396 35 2.12231 35H29.891C31.0629 35 32.0133 34.0908 32.0133 32.9697C32.0133 26.2363 26.311 20.7812 19.2723 20.7812H12.741C5.70237 20.7812 0 26.2363 0 32.9697ZM6.86 8.75C6.86 11.0706 7.82366 13.2962 9.539 14.9372C11.2543 16.5781 13.5808 17.5 16.0067 17.5C18.4325 17.5 20.759 16.5781 22.4743 14.9372C24.1897 13.2962 25.1533 11.0706 25.1533 8.75C25.1533 6.42936 24.1897 4.20376 22.4743 2.56282C20.759 0.921872 18.4325 0 16.0067 0C13.5808 0 11.2543 0.921872 9.539 2.56282C7.82366 4.20376 6.86 6.42936 6.86 8.75Z" fill="#00D2C8"/>
<path d="M36.015 16.9531V21.3281C36.015 22.2373 36.7796 22.9688 37.73 22.9688C38.6804 22.9688 39.445 22.2373 39.445 21.3281V16.9531H44.0183C44.9687 16.9531 45.7333 16.2217 45.7333 15.3125C45.7333 14.4033 44.9687 13.6719 44.0183 13.6719H39.445V9.29688C39.445 8.3877 38.6804 7.65625 37.73 7.65625C36.7796 7.65625 36.015 8.3877 36.015 9.29688V13.6719H31.4417C30.4913 13.6719 29.7267 14.4033 29.7267 15.3125C29.7267 16.2217 30.4913 16.9531 31.4417 16.9531H36.015Z" fill="#00D2C8"/>
</g>
<defs>
<clipPath id="clip0_6741_620">
<rect width="45.7333" height="35" fill="white"/>
</clipPath>
</defs>
</svg>
