<svg width="35" height="35" viewBox="0 0 35 35" fill="none" xmlns="http://www.w3.org/2000/svg">
<g clip-path="url(#clip0_6741_662)">
<path opacity="0.4" d="M0 19.6875C0 19.7354 0 19.7764 0.00683594 19.8242C0.0615234 20.6582 0.581055 21.3896 1.34668 21.7109L9.00293 24.9033L10.9375 25.7031V25.1562C10.9375 24.8691 11.0537 24.5889 11.2588 24.3838L12.1475 23.4951C16.2217 19.4209 20.2959 15.3467 24.3701 11.2793C24.377 11.2725 24.3838 11.2656 24.3838 11.2588C24.5889 11.0537 24.8486 10.9512 25.1152 10.9375C25.3818 10.9238 25.6553 11.0127 25.8672 11.2041C26.1201 11.4297 26.25 11.7305 26.25 12.0312C26.25 12.2637 26.1748 12.4961 26.0244 12.6943L15.3125 26.6191V27.5215C16.6797 28.0889 18.0469 28.6631 19.4141 29.2305C22.1416 30.3652 24.8691 31.5 27.5967 32.6416C28.2188 32.9014 28.9229 32.8604 29.5107 32.5322C30.0986 32.2041 30.502 31.623 30.6045 30.96L34.9795 2.52246C35.1094 1.69531 34.7471 0.861328 34.0566 0.389648C33.6807 0.129883 33.25 0 32.8125 0C32.4365 0 32.0674 0.0957031 31.7256 0.287109L1.10059 17.7871C0.416992 18.1768 0 18.9082 0 19.6875Z" fill="#C589B0"/>
<path d="M26.0244 12.7012C26.373 12.2432 26.3115 11.5938 25.8809 11.2109C25.4502 10.8281 24.7939 10.8486 24.3838 11.2588L12.1475 23.4951L11.2588 24.3838C11.0537 24.5889 10.9375 24.8691 10.9375 25.1563V25.7031V29.5313V32.8125C10.9375 33.7148 11.4912 34.5215 12.3252 34.8496C13.1592 35.1777 14.1162 34.959 14.7314 34.2959L19.4141 29.2373L15.3125 27.5283V26.626L26.0244 12.7012Z" fill="#C589B0"/>
</g>
<defs>
<clipPath id="clip0_6741_662">
<rect width="35" height="35" fill="white"/>
</clipPath>
</defs>
</svg>
