<svg width="34" height="67" viewBox="0 0 34 67" fill="none" xmlns="http://www.w3.org/2000/svg">
<path opacity="0.4" d="M1 6.63393V29.4911C1 32.0125 3.05 34.0625 5.57143 34.0625H28.4286C30.95 34.0625 33 32.0125 33 29.4911V6.63393C33 4.1125 30.95 2.0625 28.4286 2.0625H5.57143C3.05 2.0625 1 4.1125 1 6.63393ZM5.57143 18.0625C5.57143 15.5411 7.62143 13.4911 10.1429 13.4911C11.45 13.4911 12.6286 14.0411 13.4643 14.9196L19.3143 11.7268C19.2929 11.5554 19.2857 11.3768 19.2857 11.2054C19.2857 8.68393 21.3357 6.63393 23.8571 6.63393C26.3786 6.63393 28.4286 8.68393 28.4286 11.2054C28.4286 13.7268 26.3786 15.7768 23.8571 15.7768C22.7571 15.7768 21.75 15.3911 20.9571 14.7411L14.8643 18.0625L20.9571 21.3839C21.7429 20.7339 22.7571 20.3482 23.8571 20.3482C26.3786 20.3482 28.4286 22.3982 28.4286 24.9196C28.4286 27.4411 26.3786 29.4911 23.8571 29.4911C21.3357 29.4911 19.2857 27.4411 19.2857 24.9196C19.2857 24.7411 19.2929 24.5696 19.3143 24.3982L13.4643 21.2054C12.6286 22.0839 11.45 22.6339 10.1429 22.6339C7.62143 22.6339 5.57143 20.5839 5.57143 18.0625Z" fill="#C6CDD6"/>
<path d="M23.858 15.7766C26.3794 15.7766 28.4294 13.7266 28.4294 11.2052C28.4294 8.68379 26.3794 6.63379 23.858 6.63379C21.3366 6.63379 19.2866 8.68379 19.2866 11.2052C19.2866 11.3838 19.2937 11.5552 19.3151 11.7266L13.4651 14.9195C12.6294 14.0409 11.4508 13.4909 10.1437 13.4909C7.62227 13.4909 5.57227 15.5409 5.57227 18.0624C5.57227 20.5838 7.62227 22.6338 10.1437 22.6338C11.4508 22.6338 12.6294 22.0838 13.4651 21.2052L19.3151 24.3981C19.2937 24.5695 19.2866 24.7481 19.2866 24.9195C19.2866 27.4409 21.3366 29.4909 23.858 29.4909C26.3794 29.4909 28.4294 27.4409 28.4294 24.9195C28.4294 22.3981 26.3794 20.3481 23.858 20.3481C22.758 20.3481 21.7508 20.7338 20.958 21.3838L14.8651 18.0624L20.958 14.7409C21.7437 15.3909 22.758 15.7766 23.858 15.7766Z" fill="#C6CDD6"/>
</svg>
