<svg width="44" height="35" viewBox="0 0 44 35" fill="none" xmlns="http://www.w3.org/2000/svg">
<g clip-path="url(#clip0_6741_655)">
<path opacity="0.4" d="M0 20.4189C0 21.2188 0.65625 21.875 1.45605 21.875H16.0371C16.0508 21.875 16.0645 21.875 16.085 21.875C14.2666 20.2686 13.125 17.9238 13.125 15.3125C13.125 14.793 13.1729 14.2871 13.2549 13.7881C12.3252 13.3574 11.293 13.125 10.2061 13.125H7.28711C3.26758 13.125 0 16.3926 0 20.4189ZM4.375 5.46875C4.375 6.91915 4.95117 8.31015 5.97676 9.33574C7.00235 10.3613 8.39335 10.9375 9.84375 10.9375C11.2942 10.9375 12.6852 10.3613 13.7107 9.33574C14.7363 8.31015 15.3125 6.91915 15.3125 5.46875C15.3125 4.01835 14.7363 2.62735 13.7107 1.60176C12.6852 0.57617 11.2942 0 9.84375 0C8.39335 0 7.00235 0.57617 5.97676 1.60176C4.95117 2.62735 4.375 4.01835 4.375 5.46875ZM27.665 21.875C27.6787 21.875 27.6924 21.875 27.7129 21.875H42.2939C43.1006 21.875 43.75 21.2188 43.75 20.4189C43.75 16.3926 40.4824 13.125 36.4561 13.125H33.5371C32.4502 13.125 31.418 13.3643 30.4883 13.7881C30.5771 14.2803 30.6182 14.793 30.6182 15.3125C30.6182 17.9238 29.4697 20.2686 27.6582 21.875H27.665ZM29.5312 5.46875C29.5312 6.91915 30.1074 8.31015 31.133 9.33574C32.1586 10.3613 33.5496 10.9375 35 10.9375C36.4504 10.9375 37.8414 10.3613 38.867 9.33574C39.8926 8.31015 40.4688 6.91915 40.4688 5.46875C40.4688 4.01835 39.8926 2.62735 38.867 1.60176C37.8414 0.57617 36.4504 0 35 0C33.5496 0 32.1586 0.57617 31.133 1.60176C30.1074 2.62735 29.5312 4.01835 29.5312 5.46875Z" fill="#C197FF"/>
<path d="M21.875 21.875C22.7368 21.875 23.5902 21.7053 24.3864 21.3755C25.1826 21.0457 25.906 20.5623 26.5154 19.9529C27.1248 19.3435 27.6082 18.6201 27.938 17.8239C28.2678 17.0277 28.4375 16.1743 28.4375 15.3125C28.4375 14.4507 28.2678 13.5973 27.938 12.8011C27.6082 12.0049 27.1248 11.2815 26.5154 10.6721C25.906 10.0627 25.1826 9.57934 24.3864 9.24954C23.5902 8.91974 22.7368 8.75 21.875 8.75C21.0132 8.75 20.1598 8.91974 19.3636 9.24954C18.5674 9.57934 17.844 10.0627 17.2346 10.6721C16.6252 11.2815 16.1418 12.0049 15.812 12.8011C15.4822 13.5973 15.3125 14.4507 15.3125 15.3125C15.3125 16.1743 15.4822 17.0277 15.812 17.8239C16.1418 18.6201 16.6252 19.3435 17.2346 19.9529C17.844 20.5623 18.5674 21.0457 19.3636 21.3755C20.1598 21.7053 21.0132 21.875 21.875 21.875ZM17.8623 24.0625C12.8311 24.0625 8.75 28.1436 8.75 33.1748C8.75 34.1797 9.56348 35 10.5752 35H33.1816C34.1865 35 35.0068 34.1865 35.0068 33.1748C35 28.1436 30.9189 24.0625 25.8877 24.0625H17.8691H17.8623Z" fill="#C197FF"/>
</g>
<defs>
<clipPath id="clip0_6741_655">
<rect width="43.75" height="35" fill="white"/>
</clipPath>
</defs>
</svg>
