<svg width="26" height="22" viewBox="0 0 26 22" fill="none" xmlns="http://www.w3.org/2000/svg">
<g clip-path="url(#clip0_6741_487)">
<path d="M13.9659 0.773438C13.7323 0.300781 13.2387 0 12.6967 0C12.1546 0 11.6654 0.300781 11.4274 0.773438L8.5937 6.4582L2.26517 7.36914C1.73632 7.44648 1.29562 7.80742 1.13256 8.30156C0.969497 8.7957 1.10171 9.34141 1.48072 9.70664L6.07286 14.1367L4.98873 20.3973C4.90059 20.9129 5.12094 21.4371 5.55724 21.7422C5.99354 22.0473 6.57086 22.0859 7.04682 21.841L12.7011 18.8977L18.3553 21.841C18.8313 22.0859 19.4086 22.0516 19.8449 21.7422C20.2812 21.4328 20.5015 20.9129 20.4134 20.3973L19.3249 14.1367L23.917 9.70664C24.296 9.34141 24.4326 8.7957 24.2652 8.30156C24.0977 7.80742 23.6614 7.44648 23.1326 7.36914L16.7996 6.4582L13.9659 0.773438Z" fill="white"/>
</g>
<defs>
<clipPath id="clip0_6741_487">
<rect width="25.3846" height="22" fill="white"/>
</clipPath>
</defs>
</svg>
