<svg width="35" height="35" viewBox="0 0 35 35" fill="none" xmlns="http://www.w3.org/2000/svg">
<g clip-path="url(#clip0_6741_648)">
<path opacity="0.4" d="M0 10.9375C0 7.31445 2.93945 4.375 6.5625 4.375H13.125C14.335 4.375 15.3125 5.35254 15.3125 6.5625C15.3125 7.77246 14.335 8.75 13.125 8.75H6.5625C5.35254 8.75 4.375 9.72754 4.375 10.9375V28.4375C4.375 29.6475 5.35254 30.625 6.5625 30.625H24.0625C25.2725 30.625 26.25 29.6475 26.25 28.4375V21.875C26.25 20.665 27.2275 19.6875 28.4375 19.6875C29.6475 19.6875 30.625 20.665 30.625 21.875V28.4375C30.625 32.0605 27.6855 35 24.0625 35H6.5625C2.93945 35 0 32.0605 0 28.4375V10.9375Z" fill="#00B3F2"/>
<path d="M26.8239 1.48364L24.7663 3.53442L31.4587 10.2268L33.5163 8.16919C35.0133 6.67212 35.0133 4.2522 33.5163 2.75513L32.2379 1.48364C30.7409 -0.0134278 28.321 -0.0134278 26.8239 1.48364ZM23.2213 5.07935L11.7848 16.5227C11.3678 16.9397 11.0465 17.4524 10.862 18.0198L8.83853 24.0901C8.64029 24.678 8.79752 25.3274 9.23502 25.7717C9.67252 26.2161 10.3219 26.3665 10.9167 26.1682L16.987 24.1448C17.5475 23.9602 18.0602 23.6389 18.484 23.2219L29.9206 11.7786L23.2213 5.07935Z" fill="#00B3F2"/>
</g>
<defs>
<clipPath id="clip0_6741_648">
<rect width="35" height="35" fill="white"/>
</clipPath>
</defs>
</svg>
