<svg width="44" height="35" viewBox="0 0 44 35" fill="none" xmlns="http://www.w3.org/2000/svg">
<g clip-path="url(#clip0_6741_641)">
<path opacity="0.4" d="M0 22.9688C0 28.4033 4.40918 32.8125 9.84375 32.8125H35C39.833 32.8125 43.75 28.8955 43.75 24.0625C43.75 19.8311 40.7422 16.2969 36.75 15.4902C37.0303 14.7588 37.1875 13.959 37.1875 13.125C37.1875 9.50195 34.248 6.5625 30.625 6.5625C29.2783 6.5625 28.0205 6.97266 26.9814 7.66992C25.0879 4.38867 21.5537 2.1875 17.5 2.1875C11.457 2.1875 6.5625 7.08203 6.5625 13.125C6.5625 13.3096 6.56934 13.4941 6.57617 13.6787C2.74805 15.0254 0 18.6758 0 22.9688ZM14.7656 19.1406C14.7656 18.7236 14.9229 18.2998 15.2441 17.9785L20.7129 12.5098C21.0342 12.1885 21.4512 12.0312 21.875 12.0312C22.2988 12.0312 22.7158 12.1885 23.0371 12.5098L28.5059 17.9785C28.8271 18.2998 28.9844 18.7168 28.9844 19.1406C28.9844 19.5645 28.8271 19.9814 28.5059 20.3027C27.8633 20.9453 26.8242 20.9453 26.1885 20.3027L23.5225 17.6367L23.5156 26.7969C23.5156 27.7061 22.7842 28.4375 21.875 28.4375C20.9658 28.4375 20.2344 27.7061 20.2344 26.7969V17.6299L17.5684 20.2959C16.9258 20.9385 15.8867 20.9385 15.251 20.2959C14.9297 19.9746 14.7725 19.5576 14.7725 19.1338L14.7656 19.1406Z" fill="#4AA5FA"/>
<path d="M15.2437 20.3027C14.6011 19.6602 14.6011 18.6211 15.2437 17.9854L20.7124 12.5166C21.355 11.874 22.394 11.874 23.0298 12.5166L28.4985 17.9854C29.1411 18.6279 29.1411 19.667 28.4985 20.3027C27.856 20.9385 26.8169 20.9453 26.1812 20.3027L23.5151 17.6367V26.7969C23.5151 27.7061 22.7837 28.4375 21.8745 28.4375C20.9653 28.4375 20.2339 27.7061 20.2339 26.7969V17.6299L17.5679 20.2959C16.9253 20.9385 15.8862 20.9385 15.2505 20.2959L15.2437 20.3027Z" fill="#4AA5FA"/>
</g>
<defs>
<clipPath id="clip0_6741_641">
<rect width="43.75" height="35" fill="white"/>
</clipPath>
</defs>
</svg>
