<svg width="48" height="33" viewBox="0 0 48 33" fill="none" xmlns="http://www.w3.org/2000/svg">
<path opacity="0.4" d="M0 22.464C0 28.0827 4.75112 32.6412 10.6071 32.6412H37.7143C42.9221 32.6412 47.1429 28.5915 47.1429 23.5948C47.1429 19.2201 43.9018 15.5662 39.6 14.7323C39.902 13.976 40.0714 13.1491 40.0714 12.2869C40.0714 8.54117 36.904 5.50217 33 5.50217C31.5489 5.50217 30.1935 5.92622 29.0739 6.6471C27.0335 3.25472 23.2252 0.979004 18.8571 0.979004C12.3455 0.979004 7.07143 6.0393 7.07143 12.2869C7.07143 12.4777 7.07879 12.6686 7.08616 12.8594C2.96116 14.2517 0 18.0257 0 22.464ZM15.9107 19.6371C15.9107 19.2059 16.0801 18.7678 16.4263 18.4356C17.1187 17.7713 18.2384 17.7713 18.9234 18.4356L21.7962 21.1919L21.8036 11.7215C21.8036 10.7816 22.5917 10.0253 23.5714 10.0253C24.5511 10.0253 25.3393 10.7816 25.3393 11.7215V21.199L28.2121 18.4427C28.9045 17.7783 30.0241 17.7783 30.7092 18.4427C31.0554 18.7748 31.2248 19.2059 31.2248 19.6441C31.2248 20.0823 31.0554 20.5134 30.7092 20.8456L24.8163 26.4996C24.4701 26.8317 24.0208 26.9943 23.5641 26.9943C23.1074 26.9943 22.658 26.8317 22.3118 26.4996L16.419 20.8456C16.0728 20.5134 15.9033 20.0823 15.9033 19.6441L15.9107 19.6371Z" fill="#C6CDD6"/>
<path d="M16.4256 18.4357C15.7331 19.1 15.7331 20.1742 16.4256 20.8315L22.3184 26.4855C23.0108 27.1498 24.1305 27.1498 24.8155 26.4855L30.7084 20.8315C31.4008 20.1672 31.4008 19.0929 30.7084 18.4357C30.016 17.7784 28.8963 17.7713 28.2113 18.4357L25.3385 21.192V11.7216C25.3385 10.7816 24.5503 10.0254 23.5706 10.0254C22.591 10.0254 21.8028 10.7816 21.8028 11.7216V21.199L18.93 18.4427C18.2376 17.7784 17.118 17.7784 16.4329 18.4427L16.4256 18.4357Z" fill="#C6CDD6"/>
</svg>
