<svg width="40" height="35" viewBox="0 0 40 35" fill="none" xmlns="http://www.w3.org/2000/svg">
<g clip-path="url(#clip0_6741_669)">
<path opacity="0.4" d="M0 8.75V26.25C0 28.6631 1.96191 30.625 4.375 30.625H21.875C24.2881 30.625 26.25 28.6631 26.25 26.25V21.5879V13.4121V8.75C26.25 6.33691 24.2881 4.375 21.875 4.375H4.375C1.96191 4.375 0 6.33691 0 8.75ZM6.5625 17.5C6.5625 16.5908 7.29395 15.8594 8.20312 15.8594H11.4844V12.5781C11.4844 11.6689 12.2158 10.9375 13.125 10.9375C14.0342 10.9375 14.7656 11.6689 14.7656 12.5781V15.8594H18.0469C18.9561 15.8594 19.6875 16.5908 19.6875 17.5C19.6875 18.4092 18.9561 19.1406 18.0469 19.1406H14.7656V22.4219C14.7656 23.3311 14.0342 24.0625 13.125 24.0625C12.2158 24.0625 11.4844 23.3311 11.4844 22.4219V19.1406H8.20312C7.29395 19.1406 6.5625 18.4092 6.5625 17.5Z" fill="#00B3F2"/>
<path d="M38.2197 6.82226C38.9307 7.20507 39.375 7.94335 39.375 8.74999V26.25C39.375 27.0566 38.9307 27.7949 38.2197 28.1777C37.5088 28.5605 36.6475 28.5195 35.9707 28.0683L26.25 21.5879V13.4121L35.9707 6.93163C36.6406 6.4873 37.502 6.43944 38.2197 6.82226ZM14.7656 12.5781V15.8594H18.0469C18.9561 15.8594 19.6875 16.5908 19.6875 17.5C19.6875 18.4092 18.9561 19.1406 18.0469 19.1406H14.7656V22.4219C14.7656 23.331 14.0342 24.0625 13.125 24.0625C12.2158 24.0625 11.4844 23.331 11.4844 22.4219V19.1406H8.20312C7.29395 19.1406 6.5625 18.4092 6.5625 17.5C6.5625 16.5908 7.29395 15.8594 8.20312 15.8594H11.4844V12.5781C11.4844 11.6689 12.2158 10.9375 13.125 10.9375C14.0342 10.9375 14.7656 11.6689 14.7656 12.5781Z" fill="#00B3F2"/>
</g>
<defs>
<clipPath id="clip0_6741_669">
<rect width="39.375" height="35" fill="white"/>
</clipPath>
</defs>
</svg>
